<?xml version="1.0" encoding="UTF-8"?>
<svg id="Laag_2" data-name="Laag 2" xmlns="http://www.w3.org/2000/svg" viewBox="0 0 71.2 71.2">
  <defs>
    <style>
      .cls-1 {
        fill: #fff;
      }
    </style>
  </defs>
  <g id="Layer_1" data-name="Layer 1">
    <path class="cls-1" d="m69.2,33.6h-5.4l4.2-4.2c.8-.8.8-2,0-2.8s-2-.8-2.8,0l-7,7h-9.7c-.3-2.1-1.1-4-2.4-5.7l6.9-6.9h9.9c1.1,0,2-.9,2-2s-.9-2-2-2h-5.9l3.8-3.8c.8-.8.8-2,0-2.8-.2-.2-.43-.35-.66-.45-.05-.02-.09-.03-.14-.04-.2-.07-.4-.11-.6-.11h0c-.5,0-1,.2-1.4.6l-3.8,3.8v-5.9c0-1.1-.9-2-2-2h0c-1.1,0-2,.9-2,2v9.9l-6.9,6.9c-1.6-1.2-3.6-2-5.7-2.4v-9.7l7-7c.8-.8.8-2,0-2.8-.4-.4-.9-.6-1.4-.6s-1,.2-1.4.6l-4.2,4.2V2c0-1.1-.9-2-2-2s-2,.9-2,2v5.4l-4.2-4.2c-.4-.4-.9-.6-1.4-.6s-1,.2-1.4.6c-.8.8-.8,2,0,2.8l7,7v6.3h0v3.4c-2.1.3-4,1.1-5.7,2.4l-6.9-6.9v-9.9c0-1.1-.9-2-2-2s-2,.9-2,2v5.9l-3.8-3.8c-.4-.4-.9-.6-1.4-.6s-1,.2-1.4.6c-.8.8-.8,2,0,2.8l3.8,3.8h-5.9c-1.1,0-2,.9-2,2s.9,2,2,2h9.9l6.9,6.9c-1.2,1.6-2,3.6-2.4,5.7h-9.7l-7-7c-.4-.4-.9-.6-1.4-.6s-1,.2-1.4.6c-.8.8-.8,2,0,2.8l4.2,4.2H2c-1.1,0-2,.9-2,2s.9,2,2,2h5.4l-4.2,4.2c-.8.8-.8,2,0,2.8s2,.8,2.8,0l7-7h9.7c.3,2.1,1.1,4,2.4,5.7l-6.9,6.9h-9.9c-1.1,0-2,.9-2,2,0,.83.51,1.54,1.22,1.84.24.1.5.16.78.16h5.9l-3.8,3.8c-.8.8-.8,2,0,2.8.2.2.43.35.66.45.05.02.09.03.14.04.2.07.4.11.6.11h0c.5,0,1-.2,1.4-.6l3.8-3.8v5.9c0,1.1.9,2,2,2h0c1.1,0,2-.9,2-2v-9.9l6.9-6.9c1.6,1.2,3.6,2,5.7,2.4v9.7l-7,7c-.8.8-.8,2,0,2.8.4.4.9.6,1.4.6s1-.2,1.4-.6l4.2-4.2v5.4c0,1.1.9,2,2,2s2-.9,2-2v-5.4l4.2,4.2c.4.4.9.6,1.4.6s1-.2,1.4-.6c.8-.8.8-2,0-2.8l-7-7v-6.3h0v-3.4c2.1-.3,4-1.1,5.7-2.4l6.9,6.9v9.9c0,1.1.9,2,2,2s2-.9,2-2v-5.9l3.8,3.8c.4.4.9.6,1.4.6s1-.2,1.4-.6c.8-.8.8-2,0-2.8l-3.8-3.8h5.9c1.1,0,2-.9,2-2s-.9-2-2-2h-9.9l-6.9-6.9c.3-.4.57-.83.82-1.27.5-.89.9-1.86,1.2-2.88.15-.51.28-1.03.38-1.55h9.7l7,7c.4.4.9.6,1.4.6s1-.2,1.4-.6c.8-.8.8-2,0-2.8l-4.2-4.2h5.4c1.1,0,2-.9,2-2s-.9-2-2-2Zm-40.6,2c0-3.8,3.2-7,7-7s7,3.2,7,7-3.2,7-7,7-7-3.2-7-7Z"/>
  </g>
</svg>