<?xml version="1.0" encoding="UTF-8"?>
<svg id="Laag_2" data-name="Laag 2" xmlns="http://www.w3.org/2000/svg" viewBox="0 0 91.4 91.4">
  <defs>
    <style>
      .cls-1 {
        fill: #fff;
      }
    </style>
  </defs>
  <g id="Layer_1" data-name="Layer 1">
    <g>
      <path class="cls-1" d="m45.7,14.9c1.1,0,2-.9,2-2V2c0-1.1-.9-2-2-2s-2,.9-2,2v10.9c0,1.1.9,2,2,2Z"/>
      <path class="cls-1" d="m45.7,91.4c1.1,0,2-.9,2-2v-10.9c0-1.1-.9-2-2-2s-2,.9-2,2v10.9c0,1.1.9,2,2,2Z"/>
    </g>
    <g>
      <path class="cls-1" d="m76.5,45.7c0,1.1.9,2,2,2h10.9c1.1,0,2-.9,2-2s-.9-2-2-2h-10.9c-1.1,0-2,.9-2,2Z"/>
      <path class="cls-1" d="m0,45.7c0,1.1.9,2,2,2h10.9c1.1,0,2-.9,2-2s-.9-2-2-2H2c-1.1,0-2,.9-2,2Z"/>
    </g>
    <g>
      <path class="cls-1" d="m67.48,23.92c.78.78,2.05.78,2.83,0l7.71-7.71c.78-.78.78-2.05,0-2.83s-2.05-.78-2.83,0l-7.71,7.71c-.78.78-.78,2.05,0,2.83Z"/>
      <path class="cls-1" d="m13.39,78.02c.78.78,2.05.78,2.83,0l7.71-7.71c.78-.78.78-2.05,0-2.83s-2.05-.78-2.83,0l-7.71,7.71c-.78.78-.78,2.05,0,2.83Z"/>
    </g>
    <g>
      <path class="cls-1" d="m67.48,67.48c-.78.78-.78,2.05,0,2.83l7.71,7.71c.78.78,2.05.78,2.83,0s.78-2.05,0-2.83l-7.71-7.71c-.78-.78-2.05-.78-2.83,0Z"/>
      <path class="cls-1" d="m13.39,13.39c-.78.78-.78,2.05,0,2.83l7.71,7.71c.78.78,2.05.78,2.83,0s.78-2.05,0-2.83l-7.71-7.71c-.78-.78-2.05-.78-2.83,0Z"/>
    </g>
    <g>
      <path class="cls-1" d="m33.91,17.24c1.02-.42,1.5-1.6,1.08-2.61l-4.17-10.07c-.42-1.02-1.6-1.5-2.61-1.08s-1.5,1.6-1.08,2.61l4.17,10.07c.42,1.02,1.6,1.5,2.61,1.08Z"/>
      <path class="cls-1" d="m63.19,87.92c1.02-.42,1.5-1.6,1.08-2.61l-4.17-10.07c-.42-1.02-1.6-1.5-2.61-1.08s-1.5,1.6-1.08,2.61l4.17,10.07c.42,1.02,1.6,1.5,2.61,1.08Z"/>
    </g>
    <g>
      <path class="cls-1" d="m74.16,33.91c.42,1.02,1.6,1.5,2.61,1.08l10.07-4.17c1.02-.42,1.5-1.6,1.08-2.61s-1.6-1.5-2.61-1.08l-10.07,4.17c-1.02.42-1.5,1.6-1.08,2.61Z"/>
      <path class="cls-1" d="m3.48,63.19c.42,1.02,1.6,1.5,2.61,1.08l10.07-4.17c1.02-.42,1.5-1.6,1.08-2.61s-1.6-1.5-2.61-1.08l-10.07,4.17c-1.02.42-1.5,1.6-1.08,2.61Z"/>
    </g>
    <g>
      <path class="cls-1" d="m57.49,17.24c1.02.42,2.19-.07,2.61-1.08l4.17-10.07c.42-1.02-.07-2.19-1.08-2.61s-2.19.07-2.61,1.08l-4.17,10.07c-.42,1.02.07,2.19,1.08,2.61Z"/>
      <path class="cls-1" d="m28.21,87.92c1.02.42,2.19-.07,2.61-1.08l4.17-10.07c.42-1.02-.07-2.19-1.08-2.61s-2.19.07-2.61,1.08l-4.17,10.07c-.42,1.02.07,2.19,1.08,2.61Z"/>
    </g>
    <g>
      <path class="cls-1" d="m74.16,57.49c-.42,1.02.07,2.19,1.08,2.61l10.07,4.17c1.02.42,2.19-.07,2.61-1.08s-.07-2.19-1.08-2.61l-10.07-4.17c-1.02-.42-2.19.07-2.61,1.08Z"/>
      <path class="cls-1" d="m3.48,28.21c-.42,1.02.07,2.19,1.08,2.61l10.07,4.17c1.02.42,2.19-.07,2.61-1.08s-.07-2.19-1.08-2.61l-10.07-4.17c-1.02-.42-2.19.07-2.61,1.08Z"/>
    </g>
    <circle class="cls-1" cx="45.7" cy="45.47" r="23.45"/>
  </g>
</svg>